{
.appVersion = "895";
copyright = "Copyright 2016 Google Inc. All Rights Reserved.";
customParameters = (
{
name = description;
value = "Designed by Monotype design team.";
},
{
name = license;
value = "This Font Software is licensed under the SIL Open Font License, Version 1.1. This Font Software is distributed on an \"AS IS\" BASIS, WITHOUT WARRANTIES OR CONDITIONS OF ANY KIND, either express or implied. See the SIL Open Font License for the specific language, permissions and limitations governing your use of this Font Software.";
},
{
name = licenseURL;
value = "http://scripts.sil.org/OFL";
},
{
name = vendorID;
value = GOOG;
},
{
name = trademark;
value = "Noto is a trademark of Google Inc.";
},
{
name = fsType;
value = (
);
},
{
name = panose;
value = (
2,
11,
5,
2,
4,
5,
4,
2,
2,
4
);
},
{
name = unicodeRanges;
value = (
57,
121
);
},
{
name = codePageRanges;
value = (
1252
);
}
);
date = "2016-11-10 14:29:10 +0000";
designer = "Monotype Design Team";
designerURL = "http://www.monotype.com/studio";
familyName = "Noto Sans Lycian";
fontMaster = (
{
ascender = 2189;
capHeight = 1434;
customParameters = (
{
name = typoAscender;
value = 2189;
},
{
name = typoDescender;
value = -600;
},
{
name = typoLineGap;
value = 0;
},
{
name = winAscent;
value = 2189;
},
{
name = winDescent;
value = 600;
},
{
name = hheaAscender;
value = 2189;
},
{
name = hheaDescender;
value = -600;
},
{
name = underlinePosition;
value = -205;
},
{
name = underlineThickness;
value = 102;
}
);
descender = -600;
id = "20EA2DF5-A4D9-48FE-83B7-B1855CFEE1CA";
weightValue = 400;
widthValue = 5;
xHeight = 1024;
}
);
glyphs = (
{
glyphname = .notdef;
lastChange = "2016-11-10 14:28:56 +0000";
layers = (
{
layerId = "20EA2DF5-A4D9-48FE-83B7-B1855CFEE1CA";
paths = (
{
closed = 1;
nodes = (
"922 0 LINE",
"922 1462 LINE",
"102 1462 LINE",
"102 0 LINE"
);
},
{
closed = 1;
nodes = (
"201 1364 LINE",
"823 1364 LINE",
"823 98 LINE",
"201 98 LINE"
);
}
);
width = 1024;
}
);
note = .notdef;
},
{
glyphname = g4;
lastChange = "2016-11-10 14:28:56 +0000";
layers = (
{
layerId = "20EA2DF5-A4D9-48FE-83B7-B1855CFEE1CA";
paths = (
{
closed = 1;
nodes = (
"384 0 LINE",
"384 549 LINE",
"1150 549 LINE",
"1150 705 LINE",
"384 1462 LINE",
"200 1462 LINE",
"200 0 LINE"
);
},
{
closed = 1;
nodes = (
"384 1235 LINE",
"921 705 LINE",
"384 705 LINE"
);
}
);
width = 1231;
}
);
note = g4;
},
{
glyphname = g5;
lastChange = "2016-11-10 14:28:56 +0000";
layers = (
{
layerId = "20EA2DF5-A4D9-48FE-83B7-B1855CFEE1CA";
paths = (
{
closed = 1;
nodes = (
"793 0 LINE",
"793 1209 LINE",
"1244 748 LINE",
"1361 862 LINE",
"773 1462 LINE",
"628 1462 LINE",
"40 862 LINE",
"157 748 LINE",
"609 1211 LINE",
"609 0 LINE"
);
}
);
width = 1401;
}
);
note = g5;
},
{
glyphname = g6;
lastChange = "2016-11-10 14:28:56 +0000";
layers = (
{
layerId = "20EA2DF5-A4D9-48FE-83B7-B1855CFEE1CA";
paths = (
{
closed = 1;
nodes = (
"714 0 LINE SMOOTH",
"1034 0 OFFCURVE",
"1222 155 OFFCURVE",
"1222 416 CURVE SMOOTH",
"1222 609 OFFCURVE",
"1119 727 OFFCURVE",
"894 766 CURVE",
"894 776 LINE",
"1075 809 OFFCURVE",
"1172 927 OFFCURVE",
"1172 1100 CURVE SMOOTH",
"1172 1349 OFFCURVE",
"1009 1462 OFFCURVE",
"617 1462 CURVE SMOOTH",
"200 1462 LINE",
"200 0 LINE"
);
},
{
closed = 1;
nodes = (
"384 685 LINE",
"665 685 LINE SMOOTH",
"910 685 OFFCURVE",
"1025 602 OFFCURVE",
"1025 430 CURVE SMOOTH",
"1025 246 OFFCURVE",
"911 158 OFFCURVE",
"679 158 CURVE SMOOTH",
"384 158 LINE"
);
},
{
closed = 1;
nodes = (
"384 1304 LINE",
"626 1304 LINE SMOOTH",
"873 1304 OFFCURVE",
"982 1239 OFFCURVE",
"982 1079 CURVE SMOOTH",
"982 908 OFFCURVE",
"886 841 OFFCURVE",
"654 841 CURVE SMOOTH",
"384 841 LINE"
);
}
);
width = 1332;
}
);
note = g6;
},
{
glyphname = g7;
lastChange = "2016-11-10 14:28:56 +0000";
layers = (
{
layerId = "20EA2DF5-A4D9-48FE-83B7-B1855CFEE1CA";
paths = (
{
closed = 1;
nodes = (
"384 0 LINE",
"384 1145 LINE",
"544 865 LINE",
"698 865 LINE",
"843 1154 LINE",
"989 865 LINE",
"1143 865 LINE",
"1443 1390 LINE",
"1303 1474 LINE",
"1068 1052 LINE",
"907 1373 LINE",
"780 1373 LINE",
"619 1052 LINE",
"384 1462 LINE",
"200 1462 LINE",
"200 0 LINE"
);
}
);
width = 1523;
}
);
note = g7;
},
{
glyphname = g8;
lastChange = "2016-11-10 14:28:56 +0000";
layers = (
{
layerId = "20EA2DF5-A4D9-48FE-83B7-B1855CFEE1CA";
paths = (
{
closed = 1;
nodes = (
"384 0 LINE",
"384 645 LINE",
"1059 1372 LINE",
"940 1482 LINE",
"384 883 LINE",
"384 1462 LINE",
"200 1462 LINE",
"200 0 LINE"
);
}
);
width = 1139;
}
);
note = g8;
},
{
glyphname = g9;
lastChange = "2016-11-10 14:28:56 +0000";
layers = (
{
layerId = "20EA2DF5-A4D9-48FE-83B7-B1855CFEE1CA";
paths = (
{
closed = 1;
nodes = (
"1188 0 LINE",
"1188 111 LINE",
"705 1462 LINE",
"521 1462 LINE",
"40 113 LINE",
"40 0 LINE"
);
},
{
closed = 1;
nodes = (
"512 932 LINE SMOOTH",
"547 1028 OFFCURVE",
"580 1138 OFFCURVE",
"611 1262 CURVE",
"633 1165 OFFCURVE",
"667 1052 OFFCURVE",
"713 924 CURVE SMOOTH",
"985 158 LINE",
"237 158 LINE"
);
}
);
width = 1228;
}
);
note = g9;
},
{
glyphname = g10;
lastChange = "2016-11-10 14:28:56 +0000";
layers = (
{
layerId = "20EA2DF5-A4D9-48FE-83B7-B1855CFEE1CA";
paths = (
{
closed = 1;
nodes = (
"1017 0 LINE",
"1017 158 LINE",
"384 158 LINE",
"384 685 LINE",
"980 685 LINE",
"980 841 LINE",
"384 841 LINE",
"384 1304 LINE",
"1017 1304 LINE",
"1017 1462 LINE",
"200 1462 LINE",
"200 0 LINE"
);
}
);
width = 1137;
}
);
note = g10;
},
{
glyphname = g11;
lastChange = "2016-11-10 14:28:56 +0000";
layers = (
{
layerId = "20EA2DF5-A4D9-48FE-83B7-B1855CFEE1CA";
paths = (
{
closed = 1;
nodes = (
"384 0 LINE",
"384 625 LINE",
"978 625 LINE",
"978 781 LINE",
"384 781 LINE",
"384 1304 LINE",
"1017 1304 LINE",
"1017 1462 LINE",
"200 1462 LINE",
"200 0 LINE"
);
}
);
width = 1077;
}
);
note = g11;
},
{
glyphname = g12;
lastChange = "2016-11-10 14:28:56 +0000";
layers = (
{
layerId = "20EA2DF5-A4D9-48FE-83B7-B1855CFEE1CA";
paths = (
{
closed = 1;
nodes = (
"1005 0 LINE",
"1005 158 LINE",
"644 158 LINE",
"644 1304 LINE",
"1005 1304 LINE",
"1005 1462 LINE",
"100 1462 LINE",
"100 1304 LINE",
"460 1304 LINE",
"460 158 LINE",
"100 158 LINE",
"100 0 LINE"
);
}
);
width = 1105;
}
);
note = g12;
},
{
glyphname = g13;
lastChange = "2016-11-10 14:28:56 +0000";
layers = (
{
layerId = "20EA2DF5-A4D9-48FE-83B7-B1855CFEE1CA";
paths = (
{
closed = 1;
nodes = (
"352 32 OFFCURVE",
"546 157 OFFCURVE",
"657 346 CURVE",
"766 159 OFFCURVE",
"957 33 OFFCURVE",
"1201 -20 CURVE",
"1234 138 LINE",
"914 232 OFFCURVE",
"754 429 OFFCURVE",
"754 728 CURVE SMOOTH",
"754 1027 OFFCURVE",
"922 1235 OFFCURVE",
"1234 1324 CURVE",
"1201 1482 LINE",
"958 1430 OFFCURVE",
"766 1305 OFFCURVE",
"657 1114 CURVE",
"548 1305 OFFCURVE",
"356 1430 OFFCURVE",
"113 1482 CURVE",
"80 1324 LINE",
"393 1235 OFFCURVE",
"560 1027 OFFCURVE",
"560 728 CURVE SMOOTH",
"560 429 OFFCURVE",
"400 232 OFFCURVE",
"80 138 CURVE",
"113 -20 LINE"
);
}
);
width = 1314;
}
);
note = g13;
},
{
glyphname = g14;
lastChange = "2016-11-10 14:28:56 +0000";
layers = (
{
layerId = "20EA2DF5-A4D9-48FE-83B7-B1855CFEE1CA";
paths = (
{
closed = 1;
nodes = (
"434 0 LINE",
"434 1462 LINE",
"250 1462 LINE",
"250 0 LINE"
);
}
);
width = 684;
}
);
note = g14;
},
{
glyphname = g15;
lastChange = "2016-11-10 14:28:56 +0000";
layers = (
{
layerId = "20EA2DF5-A4D9-48FE-83B7-B1855CFEE1CA";
paths = (
{
closed = 1;
nodes = (
"384 0 LINE",
"384 595 LINE",
"906 170 LINE",
"1005 298 LINE",
"458 749 LINE",
"1005 1201 LINE",
"906 1329 LINE",
"384 903 LINE",
"384 1462 LINE",
"200 1462 LINE",
"200 0 LINE"
);
}
);
width = 1085;
}
);
note = g15;
},
{
glyphname = g16;
lastChange = "2016-11-10 14:28:56 +0000";
layers = (
{
layerId = "20EA2DF5-A4D9-48FE-83B7-B1855CFEE1CA";
paths = (
{
closed = 1;
nodes = (
"835 0 LINE",
"835 528 LINE",
"1237 126 LINE",
"1356 246 LINE",
"862 739 LINE",
"1340 1217 LINE",
"1220 1336 LINE",
"835 951 LINE",
"835 1462 LINE",
"651 1462 LINE",
"651 951 LINE",
"266 1336 LINE",
"146 1217 LINE",
"623 739 LINE",
"130 246 LINE",
"249 126 LINE",
"651 528 LINE",
"651 0 LINE"
);
}
);
width = 1470;
}
);
note = g16;
},
{
glyphname = g17;
lastChange = "2016-11-10 14:28:56 +0000";
layers = (
{
layerId = "20EA2DF5-A4D9-48FE-83B7-B1855CFEE1CA";
paths = (
{
closed = 1;
nodes = (
"223 0 LINE",
"552 938 LINE SMOOTH",
"594 1057 OFFCURVE",
"625 1163 OFFCURVE",
"644 1257 CURVE",
"661 1173 OFFCURVE",
"692 1065 OFFCURVE",
"737 934 CURVE SMOOTH",
"1064 0 LINE",
"1259 0 LINE",
"737 1462 LINE",
"552 1462 LINE",
"30 0 LINE"
);
}
);
width = 1289;
}
);
note = g17;
},
{
glyphname = g18;
lastChange = "2016-11-10 14:28:56 +0000";
layers = (
{
layerId = "20EA2DF5-A4D9-48FE-83B7-B1855CFEE1CA";
paths = (
{
closed = 1;
nodes = (
"238 380 LINE",
"369 893 LINE SMOOTH",
"401 1021 OFFCURVE",
"424 1137 OFFCURVE",
"439 1241 CURVE",
"798 380 LINE",
"988 380 LINE",
"1314 1241 LINE",
"1325 1149 OFFCURVE",
"1348 1032 OFFCURVE",
"1385 891 CURVE SMOOTH",
"1518 380 LINE",
"1705 380 LINE",
"1414 1462 LINE",
"1228 1462 LINE",
"892 595 LINE",
"885 623 OFFCURVE",
"852 708 OFFCURVE",
"791 851 CURVE SMOOTH",
"730 993 OFFCURVE",
"640 1197 OFFCURVE",
"523 1462 CURVE",
"337 1462 LINE",
"50 380 LINE"
);
}
);
width = 1755;
}
);
note = g18;
},
{
glyphname = g19;
lastChange = "2016-11-10 14:28:56 +0000";
layers = (
{
layerId = "20EA2DF5-A4D9-48FE-83B7-B1855CFEE1CA";
paths = (
{
closed = 1;
nodes = (
"384 380 LINE",
"384 817 LINE SMOOTH",
"384 952 OFFCURVE",
"378 1088 OFFCURVE",
"367 1224 CURVE",
"375 1224 LINE",
"1088 380 LINE",
"1305 380 LINE",
"1305 1462 LINE",
"1121 1462 LINE",
"1121 1018 LINE SMOOTH",
"1121 938 OFFCURVE",
"1132 635 OFFCURVE",
"1135 603 CURVE",
"1127 603 LINE",
"407 1462 LINE",
"200 1462 LINE",
"200 380 LINE"
);
}
);
width = 1505;
}
);
note = g19;
},
{
glyphname = g20;
lastChange = "2016-11-10 14:28:56 +0000";
layers = (
{
layerId = "20EA2DF5-A4D9-48FE-83B7-B1855CFEE1CA";
paths = (
{
closed = 1;
nodes = (
"205 0 LINE",
"598 635 LINE",
"985 0 LINE",
"1194 0 LINE",
"707 766 LINE",
"1159 1462 LINE",
"965 1462 LINE",
"604 889 LINE",
"246 1462 LINE",
"41 1462 LINE",
"496 762 LINE",
"10 0 LINE"
);
}
);
width = 1204;
}
);
note = g20;
},
{
glyphname = g21;
lastChange = "2016-11-10 14:28:56 +0000";
layers = (
{
layerId = "20EA2DF5-A4D9-48FE-83B7-B1855CFEE1CA";
paths = (
{
closed = 1;
nodes = (
"1174 0 LINE",
"1174 158 LINE",
"719 158 LINE",
"719 666 LINE",
"1174 666 LINE",
"1174 822 LINE",
"719 822 LINE",
"719 1304 LINE",
"1174 1304 LINE",
"1174 1462 LINE",
"80 1462 LINE",
"80 1304 LINE",
"535 1304 LINE",
"535 822 LINE",
"80 822 LINE",
"80 666 LINE",
"535 666 LINE",
"535 158 LINE",
"80 158 LINE",
"80 0 LINE"
);
}
);
width = 1254;
}
);
note = g21;
},
{
glyphname = g22;
lastChange = "2016-11-10 14:28:56 +0000";
layers = (
{
layerId = "20EA2DF5-A4D9-48FE-83B7-B1855CFEE1CA";
paths = (
{
closed = 1;
nodes = (
"1226 -20 OFFCURVE",
"1475 265 OFFCURVE",
"1475 733 CURVE SMOOTH",
"1475 1204 OFFCURVE",
"1227 1485 OFFCURVE",
"803 1485 CURVE SMOOTH",
"367 1485 OFFCURVE",
"125 1211 OFFCURVE",
"125 735 CURVE SMOOTH",
"125 255 OFFCURVE",
"370 -20 OFFCURVE",
"801 -20 CURVE SMOOTH"
);
},
{
closed = 1;
nodes = (
"486 139 OFFCURVE",
"319 346 OFFCURVE",
"319 733 CURVE SMOOTH",
"319 1118 OFFCURVE",
"486 1323 OFFCURVE",
"803 1323 CURVE SMOOTH",
"1116 1323 OFFCURVE",
"1280 1124 OFFCURVE",
"1280 733 CURVE SMOOTH",
"1280 341 OFFCURVE",
"1114 139 OFFCURVE",
"801 139 CURVE SMOOTH"
);
}
);
width = 1600;
}
);
note = g22;
},
{
glyphname = g23;
lastChange = "2016-11-10 14:28:56 +0000";
layers = (
{
layerId = "20EA2DF5-A4D9-48FE-83B7-B1855CFEE1CA";
paths = (
{
closed = 1;
nodes = (
"384 0 LINE",
"384 1304 LINE",
"414 1304 LINE SMOOTH",
"521 1304 OFFCURVE",
"619 1277 OFFCURVE",
"706 1223 CURVE SMOOTH",
"880 1115 OFFCURVE",
"982 910 OFFCURVE",
"982 670 CURVE SMOOTH",
"982 612 LINE",
"1166 612 LINE",
"1166 670 LINE SMOOTH",
"1166 819 OFFCURVE",
"1134 954 OFFCURVE",
"1070 1076 CURVE SMOOTH",
"941 1319 OFFCURVE",
"699 1462 OFFCURVE",
"414 1462 CURVE SMOOTH",
"200 1462 LINE",
"200 0 LINE"
);
}
);
width = 1286;
}
);
note = g23;
},
{
glyphname = g24;
lastChange = "2016-11-10 14:28:56 +0000";
layers = (
{
layerId = "20EA2DF5-A4D9-48FE-83B7-B1855CFEE1CA";
paths = (
{
closed = 1;
nodes = (
"819 -15 LINE",
"1403 683 LINE",
"1403 779 LINE",
"819 1477 LINE",
"705 1477 LINE",
"120 779 LINE",
"120 683 LINE",
"705 -15 LINE"
);
},
{
closed = 1;
nodes = (
"305 732 LINE",
"762 1278 LINE",
"1218 732 LINE",
"762 182 LINE"
);
}
);
width = 1523;
}
);
note = g24;
},
{
glyphname = g25;
lastChange = "2016-11-10 14:28:56 +0000";
layers = (
{
layerId = "20EA2DF5-A4D9-48FE-83B7-B1855CFEE1CA";
paths = (
{
closed = 1;
nodes = (
"384 0 LINE",
"384 569 LINE",
"552 569 LINE SMOOTH",
"928 569 OFFCURVE",
"1139 729 OFFCURVE",
"1139 1022 CURVE SMOOTH",
"1139 1311 OFFCURVE",
"950 1462 OFFCURVE",
"587 1462 CURVE SMOOTH",
"200 1462 LINE",
"200 0 LINE"
);
},
{
closed = 1;
nodes = (
"384 1304 LINE",
"570 1304 LINE SMOOTH",
"827 1304 OFFCURVE",
"945 1212 OFFCURVE",
"945 1024 CURVE SMOOTH",
"945 816 OFFCURVE",
"822 727 OFFCURVE",
"531 727 CURVE SMOOTH",
"384 727 LINE"
);
}
);
width = 1264;
}
);
note = g25;
},
{
glyphname = g26;
lastChange = "2016-11-10 14:28:56 +0000";
layers = (
{
layerId = "20EA2DF5-A4D9-48FE-83B7-B1855CFEE1CA";
paths = (
{
closed = 1;
nodes = (
"561 144 OFFCURVE",
"734 320 OFFCURVE",
"734 517 CURVE SMOOTH",
"734 555 OFFCURVE",
"728 588 OFFCURVE",
"715 617 CURVE SMOOTH",
"690 674 OFFCURVE",
"653 712 OFFCURVE",
"541 775 CURVE SMOOTH",
"478 810 OFFCURVE",
"437 836 OFFCURVE",
"416 855 CURVE SMOOTH",
"374 892 OFFCURVE",
"348 937 OFFCURVE",
"348 1001 CURVE SMOOTH",
"348 1050 OFFCURVE",
"374 1098 OFFCURVE",
"425 1145 CURVE SMOOTH",
"476 1191 OFFCURVE",
"583 1256 OFFCURVE",
"746 1340 CURVE",
"671 1492 LINE",
"326 1343 OFFCURVE",
"154 1172 OFFCURVE",
"154 978 CURVE SMOOTH",
"154 851 OFFCURVE",
"218 750 OFFCURVE",
"347 675 CURVE SMOOTH",
"428 627 OFFCURVE",
"481 592 OFFCURVE",
"505 569 CURVE SMOOTH",
"528 546 OFFCURVE",
"540 520 OFFCURVE",
"540 493 CURVE SMOOTH",
"540 382 OFFCURVE",
"370 226 OFFCURVE",
"130 123 CURVE",
"214 -33 LINE"
);
}
);
width = 876;
}
);
note = g26;
},
{
glyphname = g27;
lastChange = "2016-11-10 14:28:56 +0000";
layers = (
{
layerId = "20EA2DF5-A4D9-48FE-83B7-B1855CFEE1CA";
paths = (
{
closed = 1;
nodes = (
"671 0 LINE",
"671 1304 LINE",
"1126 1304 LINE",
"1126 1462 LINE",
"30 1462 LINE",
"30 1304 LINE",
"487 1304 LINE",
"487 0 LINE"
);
}
);
width = 1156;
}
);
note = g27;
},
{
glyphname = g28;
lastChange = "2016-11-10 14:28:56 +0000";
layers = (
{
layerId = "20EA2DF5-A4D9-48FE-83B7-B1855CFEE1CA";
paths = (
{
closed = 1;
nodes = (
"581 957 LINE",
"834 1287 LINE",
"1087 957 LINE",
"1241 957 LINE",
"1567 1381 LINE",
"1440 1482 LINE",
"1166 1124 LINE",
"903 1462 LINE",
"762 1462 LINE",
"501 1124 LINE",
"227 1482 LINE",
"100 1382 LINE",
"427 957 LINE"
);
},
{
closed = 1;
nodes = (
"926 0 LINE",
"926 987 LINE",
"742 987 LINE",
"742 0 LINE"
);
}
);
width = 1667;
}
);
note = g28;
},
{
glyphname = g29;
lastChange = "2016-11-10 14:28:56 +0000";
layers = (
{
layerId = "20EA2DF5-A4D9-48FE-83B7-B1855CFEE1CA";
paths = (
{
closed = 1;
nodes = (
"737 0 LINE",
"1259 1462 LINE",
"1069 1462 LINE",
"979 1206 LINE",
"890 1462 LINE",
"742 1462 LINE",
"907 999 LINE",
"810 721 LINE",
"550 1462 LINE",
"402 1462 LINE",
"739 519 LINE",
"692 388 OFFCURVE",
"661 282 OFFCURVE",
"644 200 CURVE",
"627 279 OFFCURVE",
"595 387 OFFCURVE",
"547 524 CURVE SMOOTH",
"218 1462 LINE",
"30 1462 LINE",
"552 0 LINE"
);
}
);
width = 1289;
}
);
note = g29;
},
{
glyphname = g30;
lastChange = "2016-11-10 14:28:56 +0000";
layers = (
{
layerId = "20EA2DF5-A4D9-48FE-83B7-B1855CFEE1CA";
paths = (
{
closed = 1;
nodes = (
"564 957 LINE",
"864 1177 LINE",
"1165 957 LINE",
"1299 957 LINE",
"1629 1384 LINE",
"1502 1482 LINE",
"1228 1117 LINE",
"1003 1279 LINE",
"1120 1364 LINE",
"1021 1492 LINE",
"864 1379 LINE",
"708 1492 LINE",
"609 1364 LINE",
"725 1279 LINE",
"501 1117 LINE",
"227 1482 LINE",
"100 1384 LINE",
"430 957 LINE"
);
},
{
closed = 1;
nodes = (
"957 0 LINE",
"957 987 LINE",
"773 987 LINE",
"773 0 LINE"
);
}
);
width = 1729;
}
);
note = g30;
},
{
glyphname = g31;
lastChange = "2016-11-10 14:28:56 +0000";
layers = (
{
layerId = "20EA2DF5-A4D9-48FE-83B7-B1855CFEE1CA";
paths = (
{
closed = 1;
nodes = (
"719 0 LINE",
"719 666 LINE",
"1174 666 LINE",
"1174 822 LINE",
"719 822 LINE",
"719 1462 LINE",
"535 1462 LINE",
"535 822 LINE",
"80 822 LINE",
"80 666 LINE",
"535 666 LINE",
"535 0 LINE"
);
}
);
width = 1254;
}
);
note = g31;
},
{
glyphname = g32;
lastChange = "2016-11-10 14:28:56 +0000";
layers = (
{
layerId = "20EA2DF5-A4D9-48FE-83B7-B1855CFEE1CA";
paths = (
{
closed = 1;
nodes = (
"742 0 LINE",
"1259 1462 LINE",
"1064 1462 LINE",
"794 611 LINE SMOOTH",
"765 519 OFFCURVE",
"741 426 OFFCURVE",
"724 333 CURVE",
"724 1462 LINE",
"560 1462 LINE",
"560 338 LINE",
"533 456 OFFCURVE",
"510 547 OFFCURVE",
"491 612 CURVE SMOOTH",
"223 1462 LINE",
"30 1462 LINE",
"547 0 LINE"
);
}
